<?xml version="1.0" encoding="utf-8"?>
<!-- Generator: Adobe Illustrator 27.2.0, SVG Export Plug-In . SVG Version: 6.00 Build 0)  -->
<svg version="1.1" id="Слой_1" xmlns="http://www.w3.org/2000/svg" xmlns:xlink="http://www.w3.org/1999/xlink" x="0px" y="0px"
	 viewBox="0 0 1999.5 416.6" style="enable-background:new 0 0 1999.5 416.6;" xml:space="preserve">
<style type="text/css">
	.st0{fill:#6366F1;}
</style>
<g>
	<polygon class="st0" points="143.6,91 265.3,212.7 387,91 508.7,212.7 630.4,91 730.1,190.8 774,146.9 630.4,3.3 508.7,125 
		387,3.3 265.3,125 143.6,3.3 0,146.9 43.9,190.8 	"/>
	<polygon class="st0" points="508.7,328.8 387,207.1 265.3,328.8 143.6,207.1 0,350.8 43.9,394.7 143.6,294.9 265.3,416.6 
		387,294.9 508.7,416.6 630.4,294.9 730.1,394.6 774,350.8 630.4,207.1 	"/>
</g>
<g>
	<g>
		<polygon points="1563.3,25.2 1563.3,396.1 1503.2,396.1 1412.4,198.3 1412.4,396.1 1350.3,396.1 1350.3,25.2 1401.2,25.2 
			1501.2,243.1 1501.2,25.2 		"/>
	</g>
	<polygon points="1309.5,87.3 1309.5,25.2 1148.9,25.2 1148.9,396.1 1309.5,396.1 1309.5,334 1211,334 1211,220.7 1272.5,220.7 
		1272.5,158.6 1211,158.6 1211,87.3 	"/>
	<polygon points="1772.2,87.3 1772.2,25.2 1611.7,25.2 1611.7,396.1 1772.2,396.1 1772.2,334 1673.7,334 1673.7,220.7 1735.2,220.7 
		1735.2,158.6 1673.7,158.6 1673.7,87.3 	"/>
	<polygon points="1999.5,25.2 1797.1,25.2 1797.1,87.3 1867.3,87.3 1867.3,396.1 1929.3,396.1 1929.3,87.3 1999.5,87.3 	"/>
	<g>
		<polygon points="1113.3,280 979,414.3 865.9,301 909.8,257.2 979,326.5 1025.5,280 868.1,122.6 990.7,0 1098.8,108.3 
			1054.9,152.2 990.7,87.8 955.9,122.6 		"/>
	</g>
</g>
</svg>
